<?xml version="1.0" standalone="no"?><!DOCTYPE svg PUBLIC "-//W3C//DTD SVG 1.1//EN" "http://www.w3.org/Graphics/SVG/1.1/DTD/svg11.dtd"><svg class="icon" width="200px" height="200.00px" viewBox="0 0 1024 1024" version="1.1" xmlns="http://www.w3.org/2000/svg"><path d="M213.333333 299.946667v386.304l0.128 0.170666a1.578667 1.578667 0 0 0 1.152 0.469334 1606.144 1606.144 0 0 1 254.72 27.989333V326.826667a359.424 359.424 0 0 0-37.717333-11.136c-44.16-10.666667-115.2-20.736-218.282667-15.786667z m341.333334 26.922666v388.010667a1606.144 1606.144 0 0 1 254.72-27.989333 1.621333 1.621333 0 0 0 1.152-0.426667 0.981333 0.981333 0 0 0 0.128-0.213333v-158.72V299.946667c-103.082667-4.992-174.08 5.077333-218.282667 15.744-15.957333 3.84-28.416 7.765333-37.717333 11.136z m-31.658667 482.346667a42.624 42.624 0 0 1-22.016 0h-0.170667l-0.853333-0.256a1211.264 1211.264 0 0 0-79.402667-16.213333 1520.128 1520.128 0 0 0-208.426666-20.565334C166.357333 770.901333 128 733.738667 128 686.250667V527.786667 299.392c0-44.245333 34.261333-82.346667 79.914667-84.565333 111.274667-5.546667 190.890667 5.205333 243.754666 17.92A411.050667 411.050667 0 0 1 512 251.946667l0.725333-0.298667c13.525333-5.546667 33.194667-12.458667 59.605334-18.816 52.906667-12.8 132.48-23.466667 243.754666-17.962667A84.394667 84.394667 0 0 1 896 299.392v386.858667c0 47.488-38.357333 84.608-84.138667 85.930666a1520.085333 1520.085333 0 0 0-208.384 20.522667 1210.624 1210.624 0 0 0-75.562666 15.274667l-3.84 0.981333-0.896 0.213333-0.170667 0.042667z" fill="#606265" /></svg>