<?xml version="1.0" standalone="no"?><!DOCTYPE svg PUBLIC "-//W3C//DTD SVG 1.1//EN" "http://www.w3.org/Graphics/SVG/1.1/DTD/svg11.dtd"><svg class="icon" width="200px" height="200.00px" viewBox="0 0 1024 1024" version="1.1" xmlns="http://www.w3.org/2000/svg"><path d="M128 512a384 384 0 1 1 768 0 384 384 0 0 1-768 0z m384-298.666667a298.666667 298.666667 0 1 0 0 597.333334 298.666667 298.666667 0 0 0 0-597.333334z m-25.6 241.877334v113.621333L571.605333 512 486.4 455.210667z m-85.333333-15.957334c0-61.354667 68.352-97.92 119.381333-63.914666l109.141333 72.746666a76.8 76.8 0 0 1 0 127.829334l-109.141333 72.746666C469.418667 682.666667 401.066667 646.101333 401.066667 584.746667v-145.493334z" fill="#606265" /></svg>