<?xml version="1.0" standalone="no"?><!DOCTYPE svg PUBLIC "-//W3C//DTD SVG 1.1//EN" "http://www.w3.org/Graphics/SVG/1.1/DTD/svg11.dtd"><svg class="icon" width="200px" height="200.00px" viewBox="0 0 1024 1024" version="1.1" xmlns="http://www.w3.org/2000/svg"><path d="M597.333333 356.053333a42.666667 42.666667 0 0 0-49.408-42.112l-362.666666 58.026667a42.666667 42.666667 0 0 0-35.925334 42.112v195.413333a42.666667 42.666667 0 0 0 36.181334 42.154667l12.970666 1.962667 0.64 0.128 212.992 36.053333 136.064 20.906667A42.666667 42.666667 0 0 0 597.333333 668.586667V356.053333z m-253.482666 408.746667L234.666667 746.24v26.325333a50.432 50.432 0 0 0 96.426666 20.608l12.757334-28.458666zM149.333333 730.112a128 128 0 0 1-85.333333-120.704V414.08a128 128 0 0 1 107.776-126.378667l362.666667-58.026666A128 128 0 0 1 682.666667 356.053333v312.490667a128 128 0 0 1-147.456 126.506667l-104.234667-16.042667-22.016 49.109333A135.765333 135.765333 0 0 1 149.333333 772.608v-42.453333zM887.466667 251.733333a42.666667 42.666667 0 0 1-8.533334 59.733334l-85.333333 64a42.666667 42.666667 0 0 1-51.2-68.266667l85.333333-64a42.666667 42.666667 0 0 1 59.733334 8.533333zM746.666667 512a42.666667 42.666667 0 0 1 42.666666-42.666667h128a42.666667 42.666667 0 1 1 0 85.333334h-128a42.666667 42.666667 0 0 1-42.666666-42.666667z m-12.8 145.066667a42.666667 42.666667 0 0 1 59.733333-8.533334l85.333333 64a42.666667 42.666667 0 1 1-51.2 68.266667l-85.333333-64a42.666667 42.666667 0 0 1-8.533333-59.733333z" fill="#606265" /></svg>