<?xml version="1.0" standalone="no"?><!DOCTYPE svg PUBLIC "-//W3C//DTD SVG 1.1//EN" "http://www.w3.org/Graphics/SVG/1.1/DTD/svg11.dtd"><svg class="icon" width="200px" height="200.00px" viewBox="0 0 1024 1024" version="1.1" xmlns="http://www.w3.org/2000/svg"><path d="M213.333333 512c0-61.525333 3.072-107.306667 11.093334-142.08 7.808-33.962667 19.712-54.570667 35.626666-68.778667 16.384-14.634667 41.472-26.453333 83.029334-34.218666C384.810667 259.114667 439.509333 256 512 256c72.490667 0 127.189333 3.114667 168.917333 10.922667 41.557333 7.808 66.645333 19.584 83.029334 34.218666 15.914667 14.208 27.818667 34.816 35.626666 68.778667 8.021333 34.773333 11.093333 80.554667 11.093334 142.08 0 61.525333-3.072 107.306667-11.093334 142.08-7.808 33.962667-19.712 54.570667-35.626666 68.778667-16.384 14.634667-41.472 26.453333-83.029334 34.218666-41.728 7.808-96.426667 10.922667-168.917333 10.922667-72.490667 0-127.189333-3.114667-168.917333-10.922667-41.557333-7.808-66.645333-19.584-83.029334-34.218666-15.914667-14.208-27.818667-34.816-35.626666-68.778667C216.405333 619.306667 213.333333 573.525333 213.333333 512z m298.666667-341.333333c-73.813333 0-134.912 3.114667-184.618667 12.373333-49.877333 9.386667-91.818667 25.6-124.16 54.485333-32.853333 29.354667-51.456 67.84-61.952 113.237334C131.029333 395.306667 128 449.066667 128 512s2.986667 116.693333 13.269333 161.28c10.496 45.354667 29.056 83.84 61.909334 113.194667 32.384 28.928 74.325333 45.141333 124.202666 54.485333 49.706667 9.258667 110.805333 12.373333 184.618667 12.373333s134.912-3.072 184.618667-12.373333c49.877333-9.386667 91.818667-25.6 124.16-54.485333 32.853333-29.354667 51.456-67.84 61.952-113.237334 10.24-44.544 13.269333-98.304 13.269333-161.237333s-2.986667-116.693333-13.269333-161.28c-10.496-45.354667-29.056-83.84-61.909334-113.194667-32.384-28.928-74.325333-45.141333-124.202666-54.485333C646.912 173.781333 585.813333 170.666667 512 170.666667z m52.48 257.834666l-37.845333-62.890666a17.066667 17.066667 0 0 0-29.269334 0l-37.802666 62.890666a16.981333 16.981333 0 0 1-10.794667 7.808l-71.466667 16.554667a17.066667 17.066667 0 0 0-9.045333 27.818667l48.128 55.381333c2.986667 3.498667 4.48 8.106667 4.096 12.672l-6.314667 73.088a17.066667 17.066667 0 0 0 23.637334 17.194667l67.541333-28.586667a17.152 17.152 0 0 1 13.312 0l67.541333 28.586667a17.066667 17.066667 0 0 0 23.637334-17.194667l-6.314667-73.088a17.066667 17.066667 0 0 1 4.096-12.672l48.128-55.381333a17.066667 17.066667 0 0 0-9.045333-27.818667l-71.466667-16.554667a17.024 17.024 0 0 1-10.752-7.808z" fill="#606265" /></svg>