<?xml version="1.0" standalone="no"?><!DOCTYPE svg PUBLIC "-//W3C//DTD SVG 1.1//EN" "http://www.w3.org/Graphics/SVG/1.1/DTD/svg11.dtd"><svg class="icon" width="200px" height="200.00px" viewBox="0 0 1024 1024" version="1.1" xmlns="http://www.w3.org/2000/svg"><path d="M490.666667 85.333333a21.333333 21.333333 0 0 0-21.333334 21.333334V170.666667H256a42.666667 42.666667 0 1 0 0 85.333333h512a42.666667 42.666667 0 1 0 0-85.333333h-213.333333V106.666667a21.333333 21.333333 0 0 0-21.333334-21.333334h-42.666666zM341.333333 298.666667a85.333333 85.333333 0 0 0-85.333333 85.333333v426.666667a85.333333 85.333333 0 0 0 85.333333 85.333333h341.333334a85.333333 85.333333 0 0 0 85.333333-85.333333V384a85.333333 85.333333 0 0 0-85.333333-85.333333H341.333333z m294.826667 108.586666a23.253333 23.253333 0 1 1 46.506667 0v380.16a23.253333 23.253333 0 0 1-46.506667 0v-380.16zM512 384c-12.8 0-23.253333 10.410667-23.253333 23.253333v380.16a23.253333 23.253333 0 1 0 46.506666 0v-380.16A23.253333 23.253333 0 0 0 512 384z m-170.666667 23.253333a23.253333 23.253333 0 1 1 46.506667 0v380.16a23.253333 23.253333 0 0 1-46.506667 0v-380.16z" fill="#606265" /></svg>